# xmcd
#
# Track frame offsets:
#	300
#	18531
#	36911
#	54939
#	69964
#	89931
#	103691
#	116092
#	129546
#	145051
#
# Disc length: 2168 seconds
#
# Revision: 1
# Processed by: cddbd v1.5.2PL0 Copyright (c) Steve Scherf et al.
# Submitted via: audiograbber 1.82.02
#
DISCID=8f08740a
DTITLE=Vince Gill - These Days - Disc 1 - Workin' on a Big Chill
DYEAR=2006
DGENRE=Country
TTITLE0=Workin' on a Big Chill
TTITLE1=Love's Standin'
TTITLE2=Cowboy Up
TTITLE3=Sweet Thing
TTITLE4=Bet It All on You
TTITLE5=Nothin' for a Broken Heart
TTITLE6=Son of a Ramblin' Man
TTITLE7=Smilin' Song
TTITLE8=The Rhythm of the Pourin' Rain
TTITLE9=Nothin' Left To Say
EXTD=
EXTT0=
EXTT1=
EXTT2=
EXTT3=
EXTT4=
EXTT5=
EXTT6=
EXTT7=
EXTT8=
EXTT9=
PLAYORDER=
